<?xml version="1.0" encoding="utf-8"?>
<!-- Generator: Adobe Illustrator 25.0.0, SVG Export Plug-In . SVG Version: 6.00 Build 0)  -->
<svg version="1.1" id="Layer_1" xmlns="http://www.w3.org/2000/svg" xmlns:xlink="http://www.w3.org/1999/xlink" x="0px" y="0px"
	 viewBox="0 0 500 500" style="enable-background:new 0 0 500 500;" xml:space="preserve">
<style type="text/css">
	.st0{fill:#0000FF;}
</style>
<g>
	<path class="st0" d="M39.95,206.65h1.56c1.6,0,2.9,1.3,2.9,2.9v1.56c0,1.59,1.3,2.9,2.9,2.9h43.7c1.59,0,2.9-1.3,2.9-2.9v-8.87
		v-2.14v-49.44c0-1.59-1.3-2.9-2.9-2.9h-0.75c-1.6,0-2.9-1.3-2.9-2.9v-4.23c0-1.59-1.3-2.9-2.9-2.9h-33.5h-3.07h-7.94
		c-1.59,0-2.9,1.3-2.9,2.9v63.12C37.06,205.35,38.36,206.65,39.95,206.65z M73.05,196.63H57.34c-1.6,0-2.9-1.3-2.9-2.9v-35.7
		c0-1.6,1.3-2.9,2.9-2.9h16.29c1.6,0,2.9,1.3,2.9,2.9v35.71c0,1.61-1.31,2.91-2.92,2.9L73.05,196.63z"/>
	<path class="st0" d="M353.33,196.63H270.8c-1.59,0-2.9,1.3-2.9,2.9v10c0,1.59,1.3,2.9,2.9,2.9h65.17c1.67,0,3.09,1.41,2.9,3.07
		c-0.02,0.13-0.02,0.27-0.02,0.4v25.12c0,1.59,1.3,2.9,2.9,2.9h11.59c1.59,0,2.9-1.3,2.9-2.9v-41.5
		C356.23,197.93,354.93,196.63,353.33,196.63z"/>
	<path class="st0" d="M352.75,125.69h-10.43c-1.91,0-3.48,1.56-3.48,3.48v59.75c0,1.91,1.56,3.48,3.48,3.48h10.43
		c1.91,0,3.48-1.56,3.48-3.48v-59.75C356.23,127.25,354.66,125.69,352.75,125.69z"/>
	<path class="st0" d="M249.7,298.04h-15.94v-38.02c0-1.91-1.56-3.48-3.48-3.48h-10.43c-1.91,0-3.48,1.56-3.48,3.48v110.82
		c0,1.91,1.56,3.48,3.48,3.48h10.43c1.91,0,3.48-1.56,3.48-3.48v-55.41h15.94c1.91,0,3.48-1.56,3.48-3.48v-10.43
		C253.18,299.6,251.62,298.04,249.7,298.04z"/>
	<path class="st0" d="M103.07,327.48h-6.26c-1.6,0-2.9-1.3-2.9-2.9v-13.62c0-1.59-1.3-2.9-2.9-2.9h-1.56c-1.6,0-2.9-1.3-2.9-2.9
		v-8.93c0-1.59-1.3-2.9-2.9-2.9h-4.23c-1.6,0-2.9-1.3-2.9-2.9V266.8c0-1.59-1.3-2.9-2.9-2.9H62.04c-1.59,0-2.9,1.3-2.9,2.9
		c0,0-0.05,24.5-0.02,30.11c0,0.62-0.5,1.13-1.12,1.13h-3.32c-1.59,0-2.9,1.3-2.9,2.9v7.94v3.07v5.27c0,1.6-1.3,2.9-2.9,2.9h-6.26
		c-1.59,0-2.9,1.3-2.9,2.9v4.23c0,1.6-1.3,2.9-2.9,2.9H27.9c-1.59,0-2.9,1.3-2.9,2.9v11.59c0,1.59,1.3,2.9,2.9,2.9h11.59
		c1.59,0,2.9-1.3,2.9-2.9v-4.23c0-1.6,1.3-2.9,2.9-2.9h8.93c1.59,0,2.9-1.3,2.9-2.9v-8.93c0-1.6,1.3-2.9,2.9-2.9h6.26
		c1.59,0,2.9-1.3,2.9-2.9v-6.26c0-1.6,1.3-2.9,2.9-2.9h0.58h1.18c1.49,0,2.7,1.21,2.7,2.7v21.18c0,1.59,1.3,2.9,2.9,2.9h6.26
		c1.6,0,2.9,1.3,2.9,2.9v1.56c0,1.59,1.3,2.9,2.9,2.9h11.59c1.59,0,2.9-1.3,2.9-2.9v-11.59
		C105.97,328.79,104.66,327.48,103.07,327.48z"/>
	<path class="st0" d="M206.12,322.79h-31.01c-1.59,0-2.9,1.3-2.9,2.9v1.56c0,1.6-1.3,2.9-2.9,2.9h-1.59c-1.67,0-3.09-1.41-2.9-3.07
		c0.02-0.13,0.02-0.27,0.02-0.4v-58.94c0-1.59-1.3-2.9-2.9-2.9h-11.59c-1.59,0-2.9,1.3-2.9,2.9v58.94c0,0.68,0,6.27,0,6.95v11.01
		c0,1.59,1.3,2.9,2.9,2.9h23.65c1.59,0,2.9-1.3,2.9-2.9v-1.56c0-1.6,1.3-2.9,2.9-2.9h26.31c1.59,0,2.9-1.3,2.9-2.9v-11.59
		C209.02,324.09,207.71,322.79,206.12,322.79z"/>
	<path class="st0" d="M276.08,189.04v-8.93c0-1.6,1.3-2.9,2.9-2.9h4.23c1.59,0,2.9-1.3,2.9-2.9v-8.93c0-1.59,1.3-2.9,2.9-2.9h6.26
		c1.59,0,2.9,1.3,2.9,2.9v8.93c0,1.59,1.3,2.9,2.9,2.9h6.26c1.6,0,2.9,1.3,2.9,2.9v8.93c0,1.59,1.3,2.9,2.9,2.9h11.59
		c1.59,0,2.9-1.3,2.9-2.9v-11.59c0-1.59-1.3-2.9-2.9-2.9h-6.26c-1.6,0-2.9-1.3-2.9-2.9v-8.93c0-1.59-1.3-2.9-2.9-2.9h-8.93
		c-1.59,0-2.9-1.3-2.9-2.9v-6.77c0-1.6,1.3-2.9,2.9-2.9h17.71c1.59,0,2.9-1.3,2.9-2.9v-7.6c0-1.59-1.3-2.9-2.9-2.9h-58.21
		c-1.59,0-2.9,1.3-2.9,2.9v7.6c0,1.59,1.3,2.9,2.9,2.9h17.32c1.6,0,2.9,1.3,2.9,2.9v6.77c0,1.59-1.3,2.9-2.9,2.9h-8.93
		c-1.59,0-2.9,1.3-2.9,2.9v8.93c0,1.6-1.3,2.9-2.9,2.9h-4.23c-1.59,0-2.9,1.3-2.9,2.9v11.59c0,1.59,1.3,2.9,2.9,2.9h11.59
		C274.78,191.93,276.08,190.63,276.08,189.04z"/>
	<path class="st0" d="M438.01,165.16h10.43h0.81v23.76c0,1.91,1.56,3.48,3.48,3.48h10.43c1.91,0,3.48-1.56,3.48-3.48v-59.75
		c0-1.91-1.56-3.48-3.48-3.48h-10.43c-1.91,0-3.48,1.56-3.48,3.48v18.6h-0.81h-10.43c-1.91,0-3.48,1.56-3.48,3.48v10.43
		C434.53,163.59,436.1,165.16,438.01,165.16z"/>
	<path class="st0" d="M373.85,177.21h8.93c1.6,0,2.9,1.3,2.9,2.9v4.23c0,1.59,1.3,2.9,2.9,2.9h23.65c1.59,0,2.9-1.3,2.9-2.9v-1.56
		c0-1.6,1.3-2.9,2.9-2.9h8.93c1.59,0,2.9-1.3,2.9-2.9v-11.59c0-1.59-1.3-2.9-2.9-2.9h-11.59c-1.59,0-2.9,1.3-2.9,2.9v1.56
		c0,1.6-1.3,2.9-2.9,2.9h-18.31c-1.6,0-2.9-1.3-2.9-2.9v-16.29c0-1.6,1.3-2.9,2.9-2.9h18.31c1.6,0,2.9,1.3,2.9,2.9v1.56
		c0,1.59,1.3,2.9,2.9,2.9h11.59c1.59,0,2.9-1.3,2.9-2.9v-11.59c0-1.59-1.3-2.9-2.9-2.9h-11.01h-0.81v-4.46c0-1.59-1.3-2.9-2.9-2.9
		h-23.65c-1.59,0-2.9,1.3-2.9,2.9v4.23c0,1.6-1.3,2.9-2.9,2.9h-8.93c-1.59,0-2.9,1.3-2.9,2.9v31.01
		C370.95,175.91,372.26,177.21,373.85,177.21z"/>
	<path class="st0" d="M471.52,342.2h-39.35v-17.05c0-0.75,0.6-1.35,1.35-1.35h24.89c1.59,0,2.9-1.3,2.9-2.9v-8.93
		c0-1.6,1.3-2.9,2.9-2.9h1.56c1.59,0,2.9-1.3,2.9-2.9v-23.65c0-1.59-1.3-2.9-2.9-2.9l-4.2,0c-1.6,0-2.9-1.3-2.9-2.9
		c0-3.33-0.03-8.35-0.03-8.35c0-1.91-1.56-3.48-3.48-3.48H391.2c-1.59,0-2.9,1.3-2.9,2.9v8.93c0,1.6-1.3,2.9-2.9,2.9h-4.23
		c-1.59,0-2.9,1.3-2.9,2.9v23.65c0,1.59,1.3,2.9,2.9,2.9h1.56c1.6,0,2.9,1.3,2.9,2.9v8.93c0,1.59,1.3,2.9,2.9,2.9h24.89
		c0.75,0,1.35,0.6,1.35,1.35v17.05h-39.35c-1.91,0-3.48,1.56-3.48,3.48v10.43c0,1.91,1.56,3.48,3.48,3.48h96.09
		c1.91,0,3.48-1.56,3.48-3.48v-10.43C475,343.77,473.44,342.2,471.52,342.2z M395.67,303.52V285.2c0-1.6,1.3-2.9,2.9-2.9h49.93
		c1.6,0,2.9,1.3,2.9,2.9v18.31c0,1.6-1.3,2.9-2.9,2.9h-18.03c-1.59,0-2.9,1.3-2.9,2.9v4.76c0,0.75-0.6,1.35-1.35,1.35h-5.48
		c-0.75,0-1.35-0.6-1.35-1.35v-4.76c0-1.59-1.3-2.9-2.9-2.9h-17.92C396.96,306.41,395.67,305.12,395.67,303.52z"/>
	<path class="st0" d="M404.28,195.82h-10.43c-1.91,0-3.48,1.56-3.48,3.48v40.69c0,1.91,1.56,3.48,3.48,3.48h2.67h7.77h48.45h3.07
		h7.36c1.91,0,3.48-1.56,3.48-3.48v-40.69c0-1.91-1.56-3.48-3.48-3.48h-10.43c-1.91,0-3.48,1.56-3.48,3.48v5.59h-41.5v-5.59
		C407.75,197.38,406.19,195.82,404.28,195.82z M449.25,223.43L449.25,223.43c0,1.46-1.18,2.64-2.64,2.64h-36.22
		c-1.46,0-2.64-1.18-2.64-2.64v0c0-1.46,1.18-2.64,2.64-2.64h36.22C448.07,220.8,449.25,221.98,449.25,223.43z"/>
	<path class="st0" d="M184.36,214.48c1.42,0,2.58-1.16,2.58-2.58v-2.67c0-1.42,1.15-2.58,2.58-2.58h4.87c1.42,0,2.58-1.16,2.58-2.58
		v-12.23c0-1.42-1.16-2.58-2.58-2.58h-12.23c-1.42,0-2.58,1.16-2.58,2.58v2.2c0,1.42-1.15,2.58-2.58,2.58h-13.94
		c-1.6,0-2.9-1.3-2.9-2.9v-5.68c0-0.15-0.01-0.3-0.03-0.45c-0.21-1.59,0.93-3.03,2.54-3.03h24.36c1.42,0,2.58-1.16,2.58-2.58v-2.2
		c0-1.42,1.15-2.58,2.58-2.58h0c1.42,0,2.58-1.16,2.58-2.58v-24.75c0-1.42-1.16-2.58-2.58-2.58h-2.67c-1.42,0-2.58-1.15-2.58-2.58
		v-4.4c0-1.42-1.16-2.58-2.58-2.58h-39.01c-1.42,0-2.58,1.16-2.58,2.58v12.23c0,1.42,1.16,2.58,2.58,2.58h29.44
		c1.42,0,2.58,1.15,2.58,2.58v6.9c0,1.42-1.15,2.58-2.58,2.58h-29.44c-1.42,0-2.58,1.16-2.58,2.58v42.14c0,1.42,1.16,2.58,2.58,2.58
		h11.33H184.36z"/>
	<path class="st0" d="M124.57,125.69h-10.43c-1.91,0-3.48,1.56-3.48,3.48v110.82c0,1.91,1.56,3.48,3.48,3.48h10.43
		c1.91,0,3.48-1.56,3.48-3.48V129.16C128.05,127.25,126.48,125.69,124.57,125.69z"/>
	<path class="st0" d="M124.57,256.54h-10.43c-1.91,0-3.48,1.56-3.48,3.48v110.82c0,1.91,1.56,3.48,3.48,3.48h10.43
		c1.91,0,3.48-1.56,3.48-3.48V260.02C128.05,258.11,126.48,256.54,124.57,256.54z"/>
	<path class="st0" d="M348.06,256.54h-10.43c-1.91,0-3.48,1.56-3.48,3.48v110.82c0,1.91,1.56,3.48,3.48,3.48h10.43
		c1.91,0,3.48-1.56,3.48-3.48V260.02C351.54,258.11,349.97,256.54,348.06,256.54z"/>
	<path class="st0" d="M219.04,233.2v-43.06c0-1.65,1.35-3,3-3h3.49c1.6,0,2.9,1.3,2.9,2.9v50.53c0,1.59,1.3,2.9,2.9,2.9h11.59
		c1.59,0,2.9-1.3,2.9-2.9V128.59c0-1.59-1.3-2.9-2.9-2.9h-11.59c-1.59,0-2.9,1.3-2.9,2.9v38.47c0,1.6-1.3,2.9-2.9,2.9h-3.59
		c-1.6,0-2.9-1.3-2.9-2.9v-38.47c0-1.59-1.3-2.9-2.9-2.9h-11.59c-1.59,0-2.9,1.3-2.9,2.9V233.2c0,1.59,1.3,2.9,2.9,2.9h11.59
		C217.74,236.1,219.04,234.79,219.04,233.2z"/>
	<path class="st0" d="M323.27,320.12h-10.35c-1.94,0-3.52,1.58-3.52,3.52v3.61c0,1.6-1.3,2.9-2.9,2.9l-20.98-0.01
		c-1.6,0-2.9-1.3-2.9-2.9v-13.03l0-0.06c-0.01-1.88,1.51-3.42,3.39-3.42h22.38c2.02,0,3.67-1.65,3.67-3.67V305
		c0-0.93,0.77-1.61,1.7-1.63c1.91-0.03,3.46-1.6,3.46-3.52v-22.86c0-1.98-1.62-3.49-3.6-3.52c-2.34-0.04-4.22-1.95-4.22-4.3v-1.74
		c0-1.94-1.58-3.52-3.52-3.52h-37.12c-1.94,0-3.52,1.58-3.52,3.52v10.35c0,1.94,1.58,3.52,3.52,3.52h28.18c1.6,0,2.9,1.3,2.9,2.9
		v6.26c0,1.6-1.3,2.9-2.9,2.9h-28.03c-2.02,0-3.67,1.65-3.67,3.67v47.81c0,1.94,1.58,3.52,3.52,3.52h39.79
		c1.94,0,3.52-1.58,3.52-3.52v-4.42c0-1.6,1.3-2.9,2.9-2.9h8.3c1.94,0,3.52-1.58,3.52-3.52v-10.35
		C326.79,321.71,325.2,320.12,323.27,320.12z"/>
</g>
</svg>
